<svg width="96" height="97" viewBox="0 0 96 97" fill="none" xmlns="http://www.w3.org/2000/svg">
<rect y="0.25" width="96" height="96" rx="48" fill="#F4F5F7"/>
<path d="M56 45.3333H64L60 40L56 45.3333ZM56 50.6667H64L60 56L56 50.6667Z" fill="#D6B1FF"/>
<path d="M33.3333 32H41.3333V64H33.3333C32.9797 64 32.6406 63.8595 32.3905 63.6095C32.1405 63.3594 32 63.0203 32 62.6667V33.3333C32 32.9797 32.1405 32.6406 32.3905 32.3905C32.6406 32.1405 32.9797 32 33.3333 32Z" fill="#8C30F5"/>
<path d="M44 32H52C52.3536 32 52.6928 32.1405 52.9428 32.3905C53.1929 32.6406 53.3333 32.9797 53.3333 33.3333V62.6667C53.3333 63.0203 53.1929 63.3594 52.9428 63.6095C52.6928 63.8595 52.3536 64 52 64H44V32Z" fill="#2EC5CE"/>
</svg>
