<svg width="96" height="97" viewBox="0 0 96 97" fill="none" xmlns="http://www.w3.org/2000/svg">
<rect y="0.75" width="96" height="96" rx="48" fill="#F4F5F7"/>
<path d="M62.6667 41V35.6667C62.6667 35.3131 62.5262 34.9739 62.2761 34.7239C62.0261 34.4738 61.687 34.3333 61.3333 34.3333H34.6667C34.313 34.3333 33.9739 34.4738 33.7239 34.7239C33.4738 34.9739 33.3333 35.3131 33.3333 35.6667V41H62.6667Z" fill="#2EC5CE"/>
<path d="M33.3333 43.6667V62.3334C33.3333 62.687 33.4738 63.0261 33.7239 63.2762C33.9739 63.5262 34.313 63.6667 34.6667 63.6667H41.3333V43.6667H33.3333Z" fill="#D6B1FF"/>
<path d="M44 63.6667H61.3333C61.687 63.6667 62.0261 63.5262 62.2761 63.2762C62.5262 63.0261 62.6667 62.687 62.6667 62.3334V43.6667H44V63.6667Z" fill="#8C30F5"/>
</svg>
