<svg width="165" height="44" viewBox="0 0 165 44" fill="none" xmlns="http://www.w3.org/2000/svg">
<path d="M1.7876 30.0821C1.7876 32.7569 4.14737 35.2232 8.01888 35.2232C10.7105 35.2232 12.4435 34.0421 13.3653 32.6874C13.3653 33.3474 13.439 34.2853 13.5496 34.7369H18.0479C17.9373 34.1464 17.8267 32.9306 17.8267 32.0274V23.6211C17.8267 20.1821 15.6882 17.1253 9.9362 17.1253C5.06916 17.1253 2.45128 20.0779 2.15631 22.7527L6.50715 23.6211C6.65464 22.1274 7.83453 20.8421 9.97307 20.8421C12.0379 20.8421 13.0334 21.8495 13.0334 23.0653C13.0334 23.6558 12.7016 24.1421 11.6692 24.2811L7.20771 24.9064C4.18425 25.3232 1.7876 27.0253 1.7876 30.0821ZM9.05129 31.7843C7.46581 31.7843 6.69151 30.8116 6.69151 29.8042C6.69151 28.4842 7.68704 27.8242 8.94067 27.6506L13.0334 27.06V27.8243C13.0334 30.8464 11.1161 31.7843 9.05129 31.7843ZM24.3553 41.3369V33.0695C25.2402 34.2158 27.0838 35.1537 29.591 35.1537C34.7161 35.1537 38.1451 31.3327 38.1451 26.1569C38.1451 21.0853 35.0848 17.2642 29.7754 17.2642C27.0469 17.2642 25.019 18.4106 24.2078 19.7306V17.6464H19.4514V41.3369H24.3553ZM33.315 26.1916C33.315 29.2485 31.3239 31.02 28.8167 31.02C26.3095 31.02 24.2815 29.2137 24.2815 26.1916C24.2815 23.1695 26.3095 21.3979 28.8167 21.3979C31.3239 21.3979 33.315 23.1695 33.315 26.1916ZM43.6135 41.3369V33.0695C44.4984 34.2158 46.342 35.1537 48.8492 35.1537C53.9744 35.1537 57.4034 31.3327 57.4034 26.1569C57.4034 21.0853 54.3431 17.2642 49.0336 17.2642C46.3051 17.2642 44.2772 18.4106 43.466 19.7306V17.6464H38.7096V41.3369H43.6135ZM52.5733 26.1916C52.5733 29.2485 50.5822 31.02 48.0749 31.02C45.5677 31.02 43.5397 29.2137 43.5397 26.1916C43.5397 23.1695 45.5677 21.3979 48.0749 21.3979C50.5822 21.3979 52.5733 23.1695 52.5733 26.1916ZM62.8715 34.7369V24.7327C62.8715 22.8569 64.1251 21.3632 66.2636 21.3632C68.4759 21.3632 69.4715 22.7527 69.4715 24.5937V34.7369H74.3385V24.7327C74.3385 22.8916 75.5921 21.3632 77.6938 21.3632C79.943 21.3632 80.9016 22.7527 80.9016 24.5937V34.7369H85.6581V23.6558C85.6581 19.0706 82.4502 17.16 79.0949 17.16C76.6983 17.16 74.781 17.9242 73.343 20.0085C72.4212 18.1674 70.4301 17.16 67.9597 17.16C65.9687 17.16 63.6458 18.0632 62.6502 19.7306V17.6464H57.9676V34.7369H62.8715ZM90.8843 24.2464C90.9949 22.6832 92.396 20.8769 94.9401 20.8769C97.7424 20.8769 98.9223 22.5442 98.996 24.2464H90.8843ZM99.4753 28.6927C98.8854 30.2211 97.6318 31.2979 95.3457 31.2979C92.9122 31.2979 90.8843 29.6653 90.7737 27.4074H103.752C103.752 27.3379 103.826 26.6432 103.826 25.9832C103.826 20.4948 100.471 17.1253 94.8664 17.1253C90.2206 17.1253 85.9435 20.6685 85.9435 26.1221C85.9435 31.8885 90.3312 35.2579 95.3089 35.2579C99.7703 35.2579 102.646 32.7916 103.568 29.839L99.4753 28.6927ZM109.274 24.9064C109.274 22.9264 110.527 21.3632 112.666 21.3632C115.026 21.3632 116.021 22.8569 116.021 24.7674V34.7369H120.925V23.9685C120.925 20.2169 118.86 17.1948 114.362 17.1948C112.408 17.1948 110.232 17.9937 109.126 19.7653V17.6464H104.37V34.7369H109.274V24.9064ZM139.876 9.5874H135.046V19.3485C134.53 18.4453 133.055 17.2295 129.921 17.2295C124.796 17.2295 121.219 21.1548 121.219 26.1569C121.219 31.3327 124.907 35.1537 130.069 35.1537C132.502 35.1537 134.346 34.1116 135.157 32.7569C135.157 33.5558 135.267 34.3895 135.341 34.7369H140.024C139.95 34.0421 139.876 32.7916 139.876 31.6453V9.5874ZM126.16 26.1569C126.16 23.1 128.151 21.3632 130.659 21.3632C133.166 21.3632 135.12 23.0653 135.12 26.1221C135.12 29.2137 133.166 31.02 130.659 31.02C128.078 31.02 126.16 29.2137 126.16 26.1569Z" fill="white"/>
<path d="M146.769 24.171H150.403C150.698 24.171 150.993 24.0782 151.19 23.7998L154.332 20.0962C154.627 19.8207 154.627 19.3567 154.332 18.9855L151.19 15.2791C150.993 15.0006 150.698 14.9078 150.403 14.9078H146.769C145.982 14.9078 145.49 15.833 145.982 16.3898L148.635 19.5394L145.982 22.689C145.493 23.2429 145.982 24.171 146.769 24.171Z" fill="white"/>
<path d="M157.073 18.8158H160.708C161.003 18.8158 161.298 18.723 161.495 18.4446L164.637 14.741C164.932 14.4655 164.932 14.0015 164.637 13.6303L161.495 9.92383C161.298 9.64542 161.003 9.55261 160.708 9.55261H157.073C156.286 9.55261 155.794 10.4777 156.286 11.0346L158.94 14.1842L156.286 17.3338C155.797 17.8877 156.286 18.8158 157.073 18.8158Z" fill="white"/>
<path d="M157.073 29.5263H160.708C161.003 29.5263 161.298 29.4334 161.495 29.1552L164.637 25.4516C164.932 25.1761 164.932 24.712 164.637 24.3408L161.495 20.6344C161.298 20.356 161.003 20.2632 160.708 20.2632H157.073C156.286 20.2632 155.794 21.1883 156.286 21.7452L158.94 24.8948L156.286 28.0444C155.797 28.5983 156.286 29.5263 157.073 29.5263Z" fill="white"/>
</svg>
