<svg width="1401" height="207" viewBox="0 0 1401 207" fill="none" xmlns="http://www.w3.org/2000/svg">
<path d="M0 0V0C38.1076 0 69 30.8924 69 69V207V207C30.8924 207 0 176.108 0 138V0Z" fill="#3D4EB8"/>
<path d="M78 133C78 94.8924 108.892 64 147 64V64V138C147 176.108 116.108 207 78 207V207V133Z" fill="#3D4EB8"/>
<path d="M156 64V64C194.108 64 225 94.8924 225 133V207V207C186.892 207 156 176.108 156 138V64Z" fill="#FB4B89"/>
<path d="M287.08 38.62H310.66V74.8L309.22 90.82H310.66C313.18 86.62 316.78 83.2 321.46 80.56C326.26 77.8 331.6 76.42 337.48 76.42C348.88 76.42 357.28 79.78 362.68 86.5C368.2 93.22 370.96 102.4 370.96 114.04V167.5H347.38V116.92C347.38 110.8 345.94 106.18 343.06 103.06C340.18 99.82 336.16 98.2 331 98.2C327.76 98.2 324.88 98.92 322.36 100.36C319.84 101.68 317.68 103.54 315.88 105.94C314.2 108.34 312.88 111.16 311.92 114.4C311.08 117.52 310.66 120.88 310.66 124.48V167.5H287.08V38.62ZM432.199 76.42C439.039 76.42 445.279 77.62 450.919 80.02C456.679 82.3 461.599 85.54 465.679 89.74C469.879 93.82 473.119 98.74 475.399 104.5C477.799 110.26 478.999 116.56 478.999 123.4C478.999 130.24 477.799 136.54 475.399 142.3C473.119 148.06 469.879 153.04 465.679 157.24C461.599 161.32 456.679 164.56 450.919 166.96C445.279 169.24 439.039 170.38 432.199 170.38C425.359 170.38 419.059 169.24 413.299 166.96C407.659 164.56 402.739 161.32 398.539 157.24C394.459 153.04 391.219 148.06 388.819 142.3C386.539 136.54 385.399 130.24 385.399 123.4C385.399 116.56 386.539 110.26 388.819 104.5C391.219 98.74 394.459 93.82 398.539 89.74C402.739 85.54 407.659 82.3 413.299 80.02C419.059 77.62 425.359 76.42 432.199 76.42ZM432.199 148.6C435.199 148.6 438.079 148.06 440.839 146.98C443.719 145.78 446.239 144.1 448.399 141.94C450.559 139.78 452.239 137.14 453.439 134.02C454.759 130.9 455.419 127.36 455.419 123.4C455.419 119.44 454.759 115.9 453.439 112.78C452.239 109.66 450.559 107.02 448.399 104.86C446.239 102.7 443.719 101.08 440.839 100C438.079 98.8 435.199 98.2 432.199 98.2C429.079 98.2 426.139 98.8 423.379 100C420.619 101.08 418.159 102.7 415.999 104.86C413.839 107.02 412.099 109.66 410.779 112.78C409.579 115.9 408.979 119.44 408.979 123.4C408.979 127.36 409.579 130.9 410.779 134.02C412.099 137.14 413.839 139.78 415.999 141.94C418.159 144.1 420.619 145.78 423.379 146.98C426.139 148.06 429.079 148.6 432.199 148.6ZM492.393 79.3H514.533V90.82H515.973C518.733 86.5 522.453 83.02 527.133 80.38C531.933 77.74 537.213 76.42 542.973 76.42C549.693 76.42 555.333 77.98 559.893 81.1C564.453 84.22 567.693 88.06 569.613 92.62C572.373 88.18 576.273 84.4 581.313 81.28C586.353 78.04 592.473 76.42 599.673 76.42C605.073 76.42 609.753 77.32 613.713 79.12C617.673 80.8 620.913 83.2 623.433 86.32C626.073 89.44 628.053 93.22 629.373 97.66C630.693 101.98 631.353 106.72 631.353 111.88V167.5H607.773V116.2C607.773 104.2 602.853 98.2 593.013 98.2C589.893 98.2 587.133 98.92 584.733 100.36C582.333 101.68 580.293 103.54 578.613 105.94C577.053 108.22 575.793 110.98 574.832 114.22C573.993 117.46 573.573 120.94 573.573 124.66V167.5H549.993V116.2C549.993 104.2 544.833 98.2 534.513 98.2C531.513 98.2 528.873 98.92 526.593 100.36C524.313 101.68 522.393 103.54 520.833 105.94C519.273 108.22 518.073 110.98 517.233 114.22C516.393 117.46 515.973 120.94 515.973 124.66V167.5H492.393V79.3ZM692.531 76.42C699.371 76.42 705.611 77.62 711.251 80.02C717.011 82.3 721.931 85.54 726.011 89.74C730.211 93.82 733.451 98.74 735.731 104.5C738.131 110.26 739.331 116.56 739.331 123.4C739.331 130.24 738.131 136.54 735.731 142.3C733.451 148.06 730.211 153.04 726.011 157.24C721.931 161.32 717.011 164.56 711.251 166.96C705.611 169.24 699.371 170.38 692.531 170.38C685.691 170.38 679.391 169.24 673.631 166.96C667.991 164.56 663.071 161.32 658.871 157.24C654.791 153.04 651.551 148.06 649.151 142.3C646.871 136.54 645.731 130.24 645.731 123.4C645.731 116.56 646.871 110.26 649.151 104.5C651.551 98.74 654.791 93.82 658.871 89.74C663.071 85.54 667.991 82.3 673.631 80.02C679.391 77.62 685.691 76.42 692.531 76.42ZM692.531 148.6C695.531 148.6 698.411 148.06 701.171 146.98C704.051 145.78 706.571 144.1 708.731 141.94C710.891 139.78 712.571 137.14 713.771 134.02C715.091 130.9 715.751 127.36 715.751 123.4C715.751 119.44 715.091 115.9 713.771 112.78C712.571 109.66 710.891 107.02 708.731 104.86C706.571 102.7 704.051 101.08 701.171 100C698.411 98.8 695.531 98.2 692.531 98.2C689.411 98.2 686.471 98.8 683.711 100C680.951 101.08 678.491 102.7 676.331 104.86C674.171 107.02 672.431 109.66 671.111 112.78C669.911 115.9 669.311 119.44 669.311 123.4C669.311 127.36 669.911 130.9 671.111 134.02C672.431 137.14 674.171 139.78 676.331 141.94C678.491 144.1 680.951 145.78 683.711 146.98C686.471 148.06 689.411 148.6 692.531 148.6ZM838.002 146.26C833.922 153.46 828.402 159.28 821.442 163.72C814.602 168.16 806.202 170.38 796.242 170.38C789.522 170.38 783.282 169.24 777.522 166.96C771.882 164.56 766.962 161.26 762.762 157.06C758.562 152.86 755.262 147.94 752.862 142.3C750.582 136.54 749.442 130.24 749.442 123.4C749.442 117.04 750.582 111.04 752.862 105.4C755.142 99.64 758.322 94.66 762.402 90.46C766.482 86.14 771.282 82.72 776.802 80.2C782.442 77.68 788.622 76.42 795.342 76.42C802.422 76.42 808.722 77.62 814.242 80.02C819.762 82.3 824.382 85.54 828.102 89.74C831.822 93.82 834.642 98.68 836.562 104.32C838.482 109.96 839.442 116.08 839.442 122.68C839.442 123.52 839.442 124.24 839.442 124.84C839.322 125.56 839.262 126.22 839.262 126.82C839.142 127.42 839.082 128.08 839.082 128.8H772.662C773.142 132.4 774.102 135.52 775.542 138.16C777.102 140.68 778.962 142.84 781.122 144.64C783.402 146.32 785.862 147.58 788.502 148.42C791.142 149.14 793.842 149.5 796.602 149.5C802.002 149.5 806.442 148.3 809.922 145.9C813.522 143.38 816.342 140.26 818.382 136.54L838.002 146.26ZM816.582 112.06C816.462 110.5 815.922 108.76 814.962 106.84C814.122 104.92 812.802 103.12 811.002 101.44C809.322 99.76 807.162 98.38 804.522 97.3C802.002 96.22 798.942 95.68 795.342 95.68C790.302 95.68 785.862 97.12 782.022 100C778.182 102.88 775.482 106.9 773.922 112.06H816.582ZM897.141 76.42C903.981 76.42 910.221 77.62 915.861 80.02C921.621 82.3 926.541 85.54 930.621 89.74C934.821 93.82 938.061 98.74 940.341 104.5C942.741 110.26 943.941 116.56 943.941 123.4C943.941 130.24 942.741 136.54 940.341 142.3C938.061 148.06 934.821 153.04 930.621 157.24C926.541 161.32 921.621 164.56 915.861 166.96C910.221 169.24 903.981 170.38 897.141 170.38C890.301 170.38 884.001 169.24 878.241 166.96C872.601 164.56 867.681 161.32 863.481 157.24C859.401 153.04 856.161 148.06 853.761 142.3C851.481 136.54 850.341 130.24 850.341 123.4C850.341 116.56 851.481 110.26 853.761 104.5C856.161 98.74 859.401 93.82 863.481 89.74C867.681 85.54 872.601 82.3 878.241 80.02C884.001 77.62 890.301 76.42 897.141 76.42ZM897.141 148.6C900.141 148.6 903.021 148.06 905.781 146.98C908.661 145.78 911.181 144.1 913.341 141.94C915.501 139.78 917.181 137.14 918.381 134.02C919.701 130.9 920.361 127.36 920.361 123.4C920.361 119.44 919.701 115.9 918.381 112.78C917.181 109.66 915.501 107.02 913.341 104.86C911.181 102.7 908.661 101.08 905.781 100C903.021 98.8 900.141 98.2 897.141 98.2C894.021 98.2 891.081 98.8 888.321 100C885.561 101.08 883.101 102.7 880.941 104.86C878.781 107.02 877.041 109.66 875.721 112.78C874.521 115.9 873.921 119.44 873.921 123.4C873.921 127.36 874.521 130.9 875.721 134.02C877.041 137.14 878.781 139.78 880.941 141.94C883.101 144.1 885.561 145.78 888.321 146.98C891.081 148.06 894.021 148.6 897.141 148.6ZM975.652 167.5H959.092V79.3H974.932V91.54H975.652C978.172 87.22 982.012 83.62 987.172 80.74C992.452 77.86 997.672 76.42 1002.83 76.42C1009.31 76.42 1015.01 77.92 1019.93 80.92C1024.85 83.92 1028.45 88.06 1030.73 93.34C1038.05 82.06 1048.19 76.42 1061.15 76.42C1071.35 76.42 1079.21 79.54 1084.73 85.78C1090.25 92.02 1093.01 100.9 1093.01 112.42V167.5H1076.45V114.94C1076.45 106.66 1074.95 100.72 1071.95 97.12C1068.95 93.4 1063.91 91.54 1056.83 91.54C1050.47 91.54 1045.13 94.24 1040.81 99.64C1036.49 105.04 1034.33 111.4 1034.33 118.72V167.5H1017.77V114.94C1017.77 106.66 1016.27 100.72 1013.27 97.12C1010.27 93.4 1005.23 91.54 998.152 91.54C991.792 91.54 986.452 94.24 982.132 99.64C977.812 105.04 975.652 111.4 975.652 118.72V167.5ZM1151.97 170.38C1139.01 170.38 1128.33 165.94 1119.93 157.06C1111.53 148.18 1107.33 136.96 1107.33 123.4C1107.33 109.96 1111.41 98.8 1119.57 89.92C1127.73 80.92 1138.17 76.42 1150.89 76.42C1163.97 76.42 1174.35 80.68 1182.03 89.2C1189.83 97.6 1193.73 109.42 1193.73 124.66L1193.55 126.46H1124.25C1124.49 135.1 1127.37 142.06 1132.89 147.34C1138.41 152.62 1145.01 155.26 1152.69 155.26C1163.25 155.26 1171.53 149.98 1177.53 139.42L1192.29 146.62C1188.33 154.06 1182.81 159.88 1175.73 164.08C1168.77 168.28 1160.85 170.38 1151.97 170.38ZM1125.51 112.78H1176.09C1175.61 106.66 1173.09 101.62 1168.53 97.66C1164.09 93.58 1158.09 91.54 1150.53 91.54C1144.29 91.54 1138.89 93.46 1134.33 97.3C1129.89 101.14 1126.95 106.3 1125.51 112.78ZM1208.88 79.3H1224.72V91.54H1225.44C1227.96 87.22 1231.8 83.62 1236.96 80.74C1242.24 77.86 1247.7 76.42 1253.34 76.42C1264.14 76.42 1272.42 79.54 1278.18 85.78C1284.06 91.9 1287 100.66 1287 112.06V167.5H1270.44V113.14C1270.08 98.74 1262.82 91.54 1248.66 91.54C1242.06 91.54 1236.54 94.24 1232.1 99.64C1227.66 104.92 1225.44 111.28 1225.44 118.72V167.5H1208.88V79.3ZM1346.04 155.26C1354.2 155.26 1360.86 152.32 1366.02 146.44C1371.42 140.56 1374.12 132.88 1374.12 123.4C1374.12 114.16 1371.42 106.54 1366.02 100.54C1360.74 94.54 1354.08 91.54 1346.04 91.54C1338.12 91.54 1331.46 94.54 1326.06 100.54C1320.66 106.54 1317.96 114.16 1317.96 123.4C1317.96 132.76 1320.66 140.38 1326.06 146.26C1331.46 152.26 1338.12 155.26 1346.04 155.26ZM1343.34 170.38C1331.82 170.38 1321.92 165.82 1313.64 156.7C1305.48 147.46 1301.4 136.36 1301.4 123.4C1301.4 110.44 1305.48 99.34 1313.64 90.1C1321.92 80.98 1331.82 76.42 1343.34 76.42C1349.82 76.42 1355.7 77.8 1360.98 80.56C1366.38 83.32 1370.52 86.98 1373.4 91.54H1374.12L1373.4 79.3V38.62H1389.96V167.5H1374.12V155.26H1373.4C1370.52 159.82 1366.38 163.48 1360.98 166.24C1355.7 169 1349.82 170.38 1343.34 170.38Z" fill="#3D4EB8"/>
</svg>
