<svg width="164" height="44" viewBox="0 0 164 44" fill="none" xmlns="http://www.w3.org/2000/svg">
<path d="M1.77673 30.0821C1.77673 32.7569 4.12221 35.2232 7.97025 35.2232C10.6456 35.2232 12.368 34.0422 13.2842 32.6874C13.2842 33.3474 13.3575 34.2853 13.4675 34.7369H17.9385C17.8286 34.1464 17.7186 32.9306 17.7186 32.0274V23.6211C17.7186 20.1821 15.593 17.1253 9.87595 17.1253C5.03841 17.1253 2.4364 20.0779 2.14321 22.7527L6.46768 23.6211C6.61427 22.1274 7.78701 20.8421 9.9126 20.8421C11.9649 20.8421 12.9544 21.8495 12.9544 23.0653C12.9544 23.6558 12.6246 24.1421 11.5984 24.2811L7.164 24.9064C4.15886 25.3232 1.77673 27.0253 1.77673 30.0821ZM8.9964 31.7843C7.42053 31.7843 6.65092 30.8116 6.65092 29.8043C6.65092 28.4843 7.64042 27.8243 8.88645 27.6506L12.9544 27.06V27.8243C12.9544 30.8464 11.0487 31.7843 8.9964 31.7843ZM24.2076 41.3369V33.0695C25.0872 34.2158 26.9196 35.1537 29.4116 35.1537C34.5056 35.1537 37.9139 31.3327 37.9139 26.1569C37.9139 21.0853 34.8721 17.2642 29.5949 17.2642C26.8829 17.2642 24.8673 18.4106 24.061 19.7306V17.6464H19.3334V41.3369H24.2076ZM33.113 26.1916C33.113 29.2485 31.134 31.02 28.642 31.02C26.15 31.02 24.1343 29.2137 24.1343 26.1916C24.1343 23.1695 26.15 21.3979 28.642 21.3979C31.134 21.3979 33.113 23.1695 33.113 26.1916ZM43.3491 41.3369V33.0695C44.2287 34.2158 46.0611 35.1537 48.5531 35.1537C53.6472 35.1537 57.0555 31.3327 57.0555 26.1569C57.0555 21.0853 54.0137 17.2642 48.7364 17.2642C46.0244 17.2642 44.0088 18.4106 43.2025 19.7306V17.6464H38.4749V41.3369H43.3491ZM52.2546 26.1916C52.2546 29.2485 50.2756 31.02 47.7835 31.02C45.2915 31.02 43.2758 29.2137 43.2758 26.1916C43.2758 23.1695 45.2915 21.3979 47.7835 21.3979C50.2756 21.3979 52.2546 23.1695 52.2546 26.1916ZM62.4904 34.7369V24.7327C62.4904 22.8569 63.7364 21.3632 65.862 21.3632C68.0609 21.3632 69.0504 22.7527 69.0504 24.5937V34.7369H73.8879V24.7327C73.8879 22.8916 75.134 21.3632 77.2229 21.3632C79.4584 21.3632 80.4113 22.7527 80.4113 24.5937V34.7369H85.1389V23.6558C85.1389 19.0706 81.9505 17.16 78.6155 17.16C76.2334 17.16 74.3277 17.9242 72.8984 20.0085C71.9822 18.1674 70.0032 17.16 67.5478 17.16C65.5688 17.16 63.26 18.0632 62.2705 19.7306V17.6464H57.6162V34.7369H62.4904ZM90.3334 24.2464C90.4434 22.6832 91.836 20.8769 94.3647 20.8769C97.15 20.8769 98.3227 22.5443 98.396 24.2464H90.3334ZM98.8724 28.6927C98.286 30.2211 97.04 31.2979 94.7678 31.2979C92.3491 31.2979 90.3334 29.6653 90.2235 27.4074H103.124C103.124 27.3379 103.197 26.6432 103.197 25.9832C103.197 20.4948 99.8619 17.1253 94.2914 17.1253C89.6738 17.1253 85.4226 20.6685 85.4226 26.1221C85.4226 31.8885 89.7837 35.2579 94.7312 35.2579C99.1656 35.2579 102.024 32.7916 102.94 29.839L98.8724 28.6927ZM108.611 24.9064C108.611 22.9264 109.857 21.3632 111.983 21.3632C114.328 21.3632 115.318 22.8569 115.318 24.7674V34.7369H120.192V23.9685C120.192 20.2169 118.14 17.1948 113.669 17.1948C111.726 17.1948 109.564 17.9937 108.465 19.7653V17.6464H103.737V34.7369H108.611V24.9064ZM139.029 9.5874H134.228V19.3485C133.715 18.4453 132.249 17.2295 129.134 17.2295C124.04 17.2295 120.485 21.1548 120.485 26.1569C120.485 31.3327 124.149 35.1537 129.28 35.1537C131.699 35.1537 133.531 34.1116 134.338 32.7569C134.338 33.5558 134.448 34.3895 134.521 34.7369H139.175C139.102 34.0422 139.029 32.7916 139.029 31.6453V9.5874ZM125.396 26.1569C125.396 23.1 127.375 21.3632 129.867 21.3632C132.359 21.3632 134.301 23.0653 134.301 26.1221C134.301 29.2137 132.359 31.02 129.867 31.02C127.301 31.02 125.396 29.2137 125.396 26.1569Z" fill="#6210CC"/>
<path d="M145.879 24.1711H149.492C149.785 24.1711 150.078 24.0783 150.274 23.7999L153.397 20.0964C153.69 19.8208 153.69 19.3568 153.397 18.9856L150.274 15.2792C150.078 15.0008 149.785 14.908 149.492 14.908H145.879C145.097 14.908 144.608 15.8331 145.097 16.3899L147.734 19.5395L145.097 22.6891C144.611 23.2431 145.097 24.1711 145.879 24.1711Z" fill="#6210CC"/>
<path d="M156.121 18.8159H159.734C160.027 18.8159 160.32 18.7231 160.516 18.4447L163.639 14.7411C163.932 14.4656 163.932 14.0016 163.639 13.6304L160.516 9.92395C160.32 9.64554 160.027 9.55273 159.734 9.55273H156.121C155.339 9.55273 154.85 10.4779 155.339 11.0347L157.977 14.1843L155.339 17.3339C154.853 17.8878 155.339 18.8159 156.121 18.8159Z" fill="#B787F4"/>
<path d="M156.121 29.5263H159.734C160.027 29.5263 160.32 29.4334 160.516 29.1552L163.639 25.4516C163.932 25.1761 163.932 24.712 163.639 24.3408L160.516 20.6344C160.32 20.356 160.027 20.2632 159.734 20.2632H156.121C155.339 20.2632 154.85 21.1883 155.339 21.7452L157.977 24.8948L155.339 28.0444C154.853 28.5983 155.339 29.5263 156.121 29.5263Z" fill="#B787F4"/>
</svg>
