<svg width="360" height="305" viewBox="0 0 360 305" fill="none" xmlns="http://www.w3.org/2000/svg">
<g opacity="0.2" clip-path="url(#clip0_2_3303)">
<path d="M2.94138 257.806C56.1117 231.391 83.1036 200.191 83.1036 164.078V163.187L82.2185 163.085C59.5612 160.464 40.8633 151.195 26.0727 135.279C11.2765 119.357 3.8989 100.963 3.8989 80.0542C3.8989 57.797 11.0735 39.0812 25.4086 23.8413C39.7325 8.61316 57.726 1 79.4634 1C103.792 1 124.872 10.8913 142.743 30.7716C160.609 50.6447 169.549 74.7707 169.549 103.21C169.549 188.48 122.19 255.299 27.0863 303.663L2.94138 257.806ZM192.404 257.804C246.002 231.392 273.215 200.194 273.215 164.078V163.185L272.328 163.084C249.226 160.463 230.311 151.191 215.524 135.279C200.728 119.357 193.35 100.963 193.35 80.0542C193.35 57.8015 200.632 39.0875 215.185 23.8468C229.73 8.61359 247.837 1 269.575 1C293.903 1 314.87 10.8905 332.521 30.767C350.168 50.6397 359 74.7673 359 103.21C359 188.484 311.856 255.303 217.187 303.666L192.404 257.804Z" stroke="#6210CC" stroke-width="2"/>
</g>
<defs>
<clipPath id="clip0_2_3303">
<rect width="360" height="305" fill="white" transform="translate(360 305) rotate(-180)"/>
</clipPath>
</defs>
</svg>
